<?xml version="1.0" standalone="no"?>
<!DOCTYPE svg PUBLIC "-//W3C//DTD SVG 20010904//EN"
 "http://www.w3.org/TR/2001/REC-SVG-20010904/DTD/svg10.dtd">
<svg version="1.0" xmlns="http://www.w3.org/2000/svg"
 width="512.000000pt" height="512.000000pt" viewBox="0 0 512.000000 512.000000"
 preserveAspectRatio="xMidYMid meet">

<g transform="translate(0.000000,512.000000) scale(0.100000,-0.100000)"
fill="#000000" stroke="none">
<path d="M2019 5081 c-317 -162 -614 -532 -846 -1051 -178 -400 -316 -813
-367 -1096 -18 -97 -29 -190 -23 -184 3 3 22 45 42 93 186 452 447 943 633
1197 76 102 208 232 267 260 68 33 132 37 181 12 138 -71 254 -290 364 -689
42 -155 118 -520 141 -683 l14 -95 6 75 c22 261 -3 772 -57 1175 -34 256 -110
597 -176 790 -40 119 -88 235 -97 235 -3 0 -40 -17 -82 -39z"/>
<path d="M2850 5044 c-97 -234 -189 -614 -240 -989 -41 -303 -68 -825 -55
-1060 l8 -150 27 165 c82 500 192 886 315 1105 83 148 174 222 265 213 73 -7
136 -44 224 -132 92 -91 163 -183 259 -335 l66 -104 -67 -54 c-127 -101 -283
-163 -377 -149 -63 10 -137 49 -179 96 -47 53 -100 163 -117 248 -7 34 -16 62
-20 62 -4 0 -35 -33 -68 -74 l-60 -74 24 -97 c29 -118 53 -169 107 -230 52
-60 104 -85 186 -92 147 -12 340 73 533 233 l76 63 22 -42 c143 -265 253 -493
368 -762 30 -71 57 -132 59 -134 16 -18 -38 282 -77 429 -29 109 -141 439
-188 554 l-40 100 78 90 c153 179 290 365 422 573 74 116 190 313 184 313 -2
0 -34 -44 -71 -97 -229 -330 -619 -813 -644 -798 -4 3 -18 31 -30 62 -27 67
-131 281 -180 368 -185 333 -447 613 -687 735 -43 22 -81 40 -84 40 -4 0 -21
-34 -39 -76z"/>
<path d="M670 2610 l0 -40 1830 0 1830 0 0 40 0 40 -1830 0 -1830 0 0 -40z"/>
<path d="M1982 2368 c-116 -216 -219 -488 -266 -708 -49 -226 -86 -697 -86
-1093 l0 -177 48 0 49 0 6 273 c4 149 10 314 13 364 l7 93 282 0 283 0 6 -192
c4 -106 8 -271 9 -365 l2 -173 54 0 54 0 -7 267 c-19 753 -62 1036 -211 1408
-50 124 -114 259 -168 353 l-25 44 -50 -94z m83 -225 c85 -182 147 -357 184
-518 22 -92 51 -272 51 -312 l0 -23 -265 0 -265 0 0 23 c0 84 37 289 76 424
44 151 170 463 188 463 2 0 17 -26 31 -57z"/>
<path d="M530 1414 l0 -1024 50 0 50 0 0 921 0 921 38 -27 c62 -46 119 -116
161 -195 72 -139 106 -291 123 -552 l11 -178 47 0 47 0 6 163 c14 377 112 640
283 758 l44 30 0 -921 0 -920 50 0 50 0 0 1024 0 1024 -47 -12 c-112 -30 -216
-113 -295 -236 -47 -73 -105 -208 -129 -300 l-11 -45 -24 83 c-77 266 -233
454 -416 501 l-38 9 0 -1024z"/>
<path d="M4170 930 l0 -550 30 0 30 0 0 550 0 550 -30 0 -30 0 0 -550z"/>
<path d="M2689 1387 c-23 -37 -28 -65 -48 -252 -21 -203 -65 -611 -76 -706 -5
-44 -4 -47 20 -53 36 -9 45 -1 46 42 0 20 3 55 7 76 l7 39 24 -51 c14 -29 28
-52 31 -52 4 0 16 21 26 47 11 27 21 51 22 55 2 5 -22 8 -53 8 l-57 0 5 33 c4
17 16 137 28 264 13 128 24 231 26 229 7 -6 73 -622 73 -677 0 -18 4 -20 27
-14 16 4 30 8 32 11 2 2 -3 70 -12 151 -18 156 -58 536 -78 738 -16 160 -18
165 -50 112z"/>
<path d="M4361 984 c-59 -100 -65 -208 -17 -317 35 -77 34 -127 -4 -188 l-29
-48 22 -35 c12 -19 24 -35 27 -36 9 0 42 64 61 119 24 69 24 112 -2 181 -47
128 -50 141 -38 184 6 22 20 53 30 68 20 27 20 28 -1 68 -11 22 -22 40 -24 40
-2 0 -13 -16 -25 -36z"/>
<path d="M2870 627 c0 -211 -3 -418 -6 -460 l-7 -77 32 0 31 0 0 160 0 161 31
-23 c28 -21 32 -21 57 -8 82 45 116 310 66 514 -25 103 -76 144 -126 99 -17
-15 -18 -15 -18 0 0 12 -9 17 -30 17 l-30 0 0 -383z m143 241 c15 -20 20 -48
24 -129 6 -121 -8 -215 -37 -244 -20 -19 -20 -19 -41 2 -26 26 -38 85 -38 188
1 117 12 183 35 200 24 18 33 15 57 -17z"/>
<path d="M3140 550 l0 -460 30 0 30 0 0 160 0 160 20 -20 c54 -54 114 5 140
138 16 82 8 319 -14 387 -28 90 -81 121 -126 73 l-20 -22 0 22 c0 18 -6 22
-30 22 l-30 0 0 -460z m154 307 c15 -31 19 -62 18 -155 0 -162 -22 -233 -66
-216 -36 14 -46 57 -46 206 0 126 2 147 20 176 26 42 49 39 74 -11z"/>
<path d="M3481 989 c-36 -39 -52 -107 -58 -249 -9 -214 20 -343 81 -365 25 -8
31 -6 57 23 l29 32 0 -25 c0 -20 5 -25 25 -25 l25 0 0 310 0 310 -25 0 c-19 0
-25 -5 -25 -21 0 -21 -1 -20 -21 5 -25 32 -61 34 -88 5z m90 -127 c9 -18 14
-79 17 -178 4 -148 3 -151 -21 -179 -30 -35 -52 -29 -74 22 -21 49 -24 249 -4
308 23 68 56 79 82 27z"/>
<path d="M3803 988 c-11 -13 -25 -36 -31 -53 -10 -29 -10 -28 -11 18 -1 46 -2
47 -32 47 l-32 0 6 -82 c4 -46 7 -183 7 -305 l0 -223 24 0 24 0 4 218 c3 176
7 224 20 255 9 20 23 37 31 37 9 0 17 20 24 55 11 62 1 71 -34 33z"/>
<path d="M3945 984 c-46 -50 -70 -194 -61 -361 7 -138 33 -215 80 -244 41 -25
42 -25 81 14 46 46 54 81 25 112 l-22 24 -24 -27 -24 -27 -24 27 c-30 34 -40
105 -34 232 7 139 43 188 90 125 l19 -26 -31 -54 c-55 -96 -54 -92 -32 -134
l19 -38 52 87 c56 97 60 121 35 206 -29 99 -99 138 -149 84z"/>
</g>
</svg>
