<svg version="1.1" id="Layer_1" xmlns="http://www.w3.org/2000/svg" xmlns:xlink="http://www.w3.org/1999/xlink" x="0px" y="0px"
	 width="100%" viewBox="0 0 512 512" enable-background="new 0 0 512 512" xml:space="preserve">
<path fill="#000000" opacity="1.000000" stroke="none" 
	d="
M293.765656,1.296834 
	C365.650665,1.000000 437.301361,1.027993 508.951843,0.911044 
	C512.269287,0.905629 513.102905,1.427635 513.100464,4.950277 
	C512.985352,172.912689 512.981689,340.875183 513.114868,508.837585 
	C513.117920,512.685669 512.027954,513.078125 508.664185,513.076416 
	C340.868347,512.989319 173.072479,512.986694 5.276699,513.090698 
	C1.746322,513.092896 0.894850,512.459839 0.897444,508.778473 
	C1.015653,340.982666 1.018064,173.186798 0.890614,5.391045 
	C0.887583,1.400359 2.058383,0.911294 5.607168,0.917264 
	C72.425529,1.029672 139.244125,1.000000 206.531342,1.000000 
	C208.820343,3.693130 206.933197,4.998201 204.958954,6.069986 
	C172.943985,23.450272 151.819305,50.958134 134.819931,82.098015 
	C115.102188,118.217438 100.514297,156.460464 89.297302,195.994568 
	C85.985397,207.667328 83.950378,219.669800 81.304970,230.786758 
	C82.474892,223.451828 86.061668,216.208832 89.386513,208.947998 
	C104.163918,176.677048 119.522522,144.673187 139.683167,115.320602 
	C148.437363,102.575050 157.674789,90.032448 171.314377,81.803680 
	C181.855011,75.444496 191.035309,76.603767 199.946915,85.009087 
	C207.629547,92.255264 212.899460,101.140762 216.868713,110.688240 
	C229.924713,142.092545 237.555435,174.980362 242.655426,208.502060 
	C243.253220,212.431259 243.468781,216.437759 243.486343,218.846283 
	C242.017395,206.295898 243.067108,192.091583 242.434586,177.946350 
	C241.468887,156.349579 240.022797,134.772415 237.341843,113.295746 
	C234.202026,88.143272 229.767624,63.260468 222.850708,38.842484 
	C219.850372,28.250711 216.093140,17.928360 212.381775,7.582200 
	C211.672394,5.604621 210.417023,3.538753 212.734009,1.282799 
	C237.687561,1.000000 262.375122,1.000000 287.531342,1.000000 
	C290.565094,3.010284 289.694122,5.466164 288.754852,7.808259 
	C280.729431,27.819824 274.943451,48.495369 270.736938,69.603828 
	C266.310638,91.815002 263.510345,114.246033 261.244202,136.796692 
	C258.541199,163.695160 259.287903,190.698639 257.477295,217.605225 
	C257.368927,219.215240 257.854126,220.837585 257.462982,222.444305 
	C258.401611,196.687653 265.028778,171.960037 271.523346,147.250458 
	C275.846954,130.800766 281.547058,114.798019 289.789001,99.798752 
	C293.118683,93.739166 297.218384,88.364464 302.390442,83.791924 
	C310.170685,76.913506 319.211975,75.841202 328.248871,80.964233 
	C337.511505,86.215210 344.930634,93.624977 351.443939,101.901085 
	C359.069550,111.590546 366.171417,121.668777 372.243134,132.431046 
	C374.800140,136.963440 374.534424,138.582474 370.600128,141.866348 
	C363.160706,148.075912 355.563141,154.197571 346.206573,157.195465 
	C323.643036,164.424957 308.522614,155.675812 299.661896,134.314316 
	C298.513733,131.546310 297.779724,128.620651 296.786438,125.790993 
	C295.928375,123.346703 294.568878,123.009438 292.811035,124.962273 
	C289.113281,129.070175 286.349487,133.411743 288.208313,139.390961 
	C289.293671,142.882187 289.859802,146.542633 291.207886,149.958817 
	C299.155060,170.098099 312.210785,175.535034 332.230835,169.396851 
	C346.768555,164.939529 359.126068,156.354111 370.575378,146.480347 
	C376.454102,141.410568 377.707886,141.567627 381.400177,148.245483 
	C395.107330,173.036118 407.577393,198.418335 418.071686,224.755997 
	C418.908142,226.855225 419.102692,229.020737 419.686493,231.130417 
	C413.644257,198.597778 403.975098,167.137924 391.392883,136.589645 
	C389.118500,131.067627 389.711029,127.431877 393.817261,122.903534 
	C411.088165,103.857239 425.786652,82.823845 440.059692,61.473934 
	C443.339172,56.568413 446.609863,51.617313 449.041412,48.412350 
	C437.522491,66.033669 424.357971,84.786964 409.317139,102.176331 
	C403.871338,108.472450 398.253235,114.610519 392.750244,120.852226 
	C389.771545,124.230713 387.081482,123.815163 384.823700,119.907837 
	C381.731781,114.557060 379.796814,108.662376 377.177917,103.090958 
	C366.434326,80.234856 353.655701,58.615623 337.102661,39.440159 
	C325.813721,26.362717 312.819672,15.233960 297.582581,6.876985 
	C295.513977,5.742439 292.574493,5.116529 293.765656,1.296834 
z"/>
<path fill="#EE0D56" opacity="1.000000" stroke="none" 
	d="
M293.571533,1.000000 
	C293.119385,2.517281 294.357483,2.650956 295.297668,3.112722 
	C316.672791,13.611022 332.927368,29.788813 347.361298,48.451260 
	C360.173340,65.016678 370.161133,83.086830 379.278229,101.753731 
	C382.476837,108.302849 385.230408,115.069336 388.281464,121.949097 
	C413.228607,95.686401 434.503418,66.871323 455.583771,37.002800 
	C456.470123,39.885056 454.785400,41.587337 453.890259,43.053864 
	C440.360413,65.220482 426.384613,87.083115 410.164032,107.439575 
	C404.725372,114.264931 399.128998,120.930740 393.136932,127.255310 
	C391.656982,128.817352 391.475555,129.877121 392.293732,131.858994 
	C400.930298,152.779541 408.334106,174.144012 414.424011,195.937424 
	C417.846191,208.184052 419.977844,220.734970 421.962006,233.292282 
	C422.204956,234.829849 421.995148,236.438980 421.628845,238.089890 
	C413.416748,218.564148 404.572479,199.405960 395.578430,180.328720 
	C390.105988,168.721115 383.729034,157.536774 377.652985,146.218887 
	C375.919403,142.989716 374.505371,146.253632 373.684082,146.985931 
	C366.569763,153.329254 359.138092,159.214081 350.731537,163.755142 
	C340.978058,169.023804 331.227997,173.750549 319.612457,174.182510 
	C305.737823,174.698486 297.319611,167.697906 291.229736,156.508224 
	C287.207977,149.118530 286.012756,140.831024 284.291901,132.732025 
	C284.195068,132.276443 284.109772,131.625626 284.346954,131.320633 
	C288.166748,126.408829 291.850220,121.368866 295.991547,116.739899 
	C297.711731,114.817169 297.793030,117.044296 298.010376,118.312592 
	C299.794067,128.720810 302.794403,138.580643 309.940521,146.797226 
	C315.071594,152.696915 321.067047,156.467346 329.084564,157.051544 
	C343.969910,158.136185 355.504089,151.034485 366.269470,142.147675 
	C372.045990,137.379196 371.944153,137.120728 368.179565,130.569534 
	C360.893036,117.889198 352.381714,105.994469 342.424591,95.363754 
	C338.171539,90.823021 333.584900,86.090828 327.642395,83.241493 
	C317.998535,78.617378 311.807495,78.908264 303.460541,86.124023 
	C293.061218,95.114006 287.999329,107.573273 283.174957,119.877960 
	C272.909912,146.059372 267.025024,173.458374 262.015839,201.044006 
	C260.333649,210.307983 258.950958,219.626328 257.344849,229.449097 
	C254.938675,210.414795 255.831177,191.794632 256.237671,173.252014 
	C256.457092,163.243423 256.991608,153.142242 258.057343,143.144943 
	C259.776215,127.020096 261.338074,110.889801 263.790558,94.827606 
	C267.886169,68.003662 273.692566,41.673656 282.948822,16.148062 
	C284.726196,11.246606 286.738739,6.430419 288.321381,1.287447 
	C289.714355,1.000000 291.428711,1.000000 293.571533,1.000000 
z"/>
<path fill="#EE0D56" opacity="1.000000" stroke="none" 
	d="
M212.571533,1.000000 
	C214.132935,7.653679 217.384125,13.584963 219.533798,19.892019 
	C224.580444,34.698719 228.829758,49.712475 231.940567,65.025230 
	C234.505203,77.649452 237.392426,90.285965 238.702347,103.064072 
	C239.874725,114.500671 241.179123,125.959206 242.270996,137.407928 
	C244.699371,162.870209 245.005981,188.331146 245.082657,213.844238 
	C245.098129,218.994659 243.740005,223.904205 243.536652,229.011276 
	C240.804230,207.606659 236.815979,186.440201 231.827805,165.523438 
	C226.590790,143.563278 220.309738,121.779343 209.663544,101.718361 
	C205.967194,94.753204 201.228745,88.138237 194.216339,83.467224 
	C187.668427,79.105591 181.328140,79.449715 174.870422,82.674858 
	C165.814789,87.197464 159.293900,94.596962 152.873108,102.265785 
	C135.296036,123.259377 122.632271,147.215546 110.244698,171.371765 
	C101.473396,188.476105 93.180946,205.801041 85.969170,223.632950 
	C83.988556,228.530243 81.708763,233.306534 79.245018,238.065323 
	C79.391167,230.569061 80.541000,223.211334 82.038460,215.930176 
	C85.912621,197.092697 91.209557,178.644821 97.773575,160.566727 
	C104.436798,142.215454 111.778656,124.154747 119.792213,106.334282 
	C126.986465,90.335777 135.434647,75.108475 144.910309,60.398674 
	C154.252533,45.896004 165.430374,32.884251 178.257645,21.454685 
	C186.513550,14.098372 195.520996,7.500931 205.818863,3.008086 
	C206.523300,2.700751 207.063812,2.017706 207.340271,1.254696 
	C208.714355,1.000000 210.428711,1.000000 212.571533,1.000000 
z"/>
<path fill="#EE0D56" opacity="1.000000" stroke="none" 
	d="
M150.000000,431.000000 
	C149.999969,443.999298 149.795380,456.503815 150.111969,468.995087 
	C150.221283,473.307892 148.856781,474.166718 144.823425,474.156799 
	C140.873154,474.147095 139.903702,473.039307 139.912354,469.145325 
	C140.039780,411.815430 140.000031,354.485168 140.000000,297.154999 
	C140.000000,295.217896 140.000000,293.280762 140.000000,290.806488 
	C131.625534,294.754913 126.327316,300.888214 122.001617,308.028076 
	C114.334534,320.683167 111.134262,334.730865 108.948624,349.154846 
	C107.333023,359.816864 106.565186,370.512024 107.091484,381.253021 
	C107.310249,385.717804 104.657822,385.034760 102.064285,384.991028 
	C99.575684,384.949097 96.972725,385.952728 96.880920,381.389648 
	C96.487740,361.845947 95.049881,342.357697 88.919830,323.625732 
	C84.542290,310.249023 77.110245,298.882507 64.813263,290.846191 
	C63.446903,292.795929 64.031425,294.819366 64.030228,296.669830 
	C63.993248,353.833313 64.000336,410.996826 63.999352,468.160339 
	C63.999260,473.407227 59.908134,476.034515 55.155266,473.919037 
	C54.189816,473.489380 54.056293,472.816040 54.024883,471.982635 
	C53.993523,471.150360 54.001034,470.316376 54.001030,469.483154 
	C54.000725,403.653442 54.001350,337.823730 54.001911,271.994019 
	C54.001919,271.331818 54.001911,270.669647 54.001911,269.737640 
	C66.437401,270.147675 74.953873,277.341614 82.266205,285.946289 
	C92.158134,297.586456 97.874390,311.423676 101.528877,327.315308 
	C104.259338,318.699371 106.515762,310.928070 110.019569,303.671082 
	C117.127144,288.950012 126.646553,276.458832 142.765564,270.722412 
	C149.921494,268.175781 149.999893,268.394867 149.999924,276.008423 
	C150.000061,327.505615 150.000000,379.002808 150.000000,431.000000 
z"/>
<path fill="#EE0D56" opacity="1.000000" stroke="none" 
	d="
M244.999969,454.999420 
	C244.999786,460.331238 244.780563,465.176544 245.073563,469.990662 
	C245.281906,473.413452 243.969070,474.449554 240.823883,474.020447 
	C239.842422,473.886505 238.808701,473.875488 237.831009,474.022247 
	C234.723373,474.488770 233.870178,473.214813 233.930603,470.147980 
	C234.120941,460.487793 233.719666,450.811218 234.071747,441.160126 
	C234.502441,429.353516 232.748825,417.643555 232.995453,405.861359 
	C233.065720,402.504547 231.853912,400.877411 228.043274,400.921753 
	C212.049942,401.107819 196.052200,401.093140 180.058472,400.924591 
	C176.738800,400.889618 176.143890,401.957977 175.885773,405.112457 
	C174.746201,419.039551 175.646973,433.014679 174.769928,446.900665 
	C174.267639,454.853180 174.037140,462.780762 174.100296,470.713287 
	C174.131226,474.600098 171.848663,474.240753 169.619232,473.927277 
	C167.491501,473.628082 163.929321,475.878143 163.965088,470.932220 
	C164.072327,456.103821 163.479980,441.249237 164.181808,426.453278 
	C164.697144,415.588928 165.196655,404.696014 166.060623,393.847260 
	C168.270401,366.099152 172.486771,338.813446 182.540955,312.539764 
	C188.559479,296.812042 195.922424,281.897644 204.075592,266.632111 
	C212.096176,278.789856 217.647537,291.328461 222.922577,303.989288 
	C228.692688,317.838287 233.058273,332.157196 236.339264,346.784546 
	C238.594284,356.837891 240.023315,367.047302 240.983627,377.306244 
	C242.614944,394.733429 243.569382,412.192780 244.288574,429.689484 
	C244.628418,437.957123 244.579666,446.236969 244.999969,454.999420 
z"/>
<path fill="#EE0D56" opacity="1.000000" stroke="none" 
	d="
M336.000000,256.000000 
	C248.022171,255.999985 160.544327,256.002686 73.066498,255.985901 
	C70.602707,255.985428 67.682922,257.020172 67.862213,252.390976 
	C67.993279,249.007050 68.669792,247.605042 72.279976,247.932297 
	C75.750565,248.246902 79.272034,248.000000 82.771149,248.000000 
	C198.075272,248.000000 313.379395,247.993774 428.683472,248.046143 
	C430.927948,248.047165 434.158752,246.529068 434.130615,251.354431 
	C434.109375,254.997025 433.317291,256.116119 429.475800,256.095062 
	C398.484619,255.925110 367.492096,255.999954 336.000000,256.000000 
z"/>
<path fill="#EE0D56" opacity="1.000000" stroke="none" 
	d="
M259.998535,446.880127 
	C261.189484,435.344177 262.259979,424.261749 263.698730,413.206543 
	C264.649261,405.902679 265.133148,398.494110 266.022797,391.155121 
	C266.929413,383.675720 266.092346,375.640076 272.782867,369.854309 
	C275.454041,373.270355 274.363525,377.874023 274.672729,381.703217 
	C275.599304,393.177704 276.954651,404.616547 278.170959,416.044250 
	C279.626343,429.718109 280.467926,443.477173 282.862000,457.057648 
	C283.572021,461.085358 282.871490,465.244598 283.888733,469.360931 
	C284.939789,473.613892 283.842438,477.012085 278.120087,476.213501 
	C278.340576,471.278259 275.987823,466.378998 276.919922,461.070923 
	C274.073792,463.853363 272.819946,467.380676 271.351379,471.206146 
	C268.184113,468.323242 267.683289,464.088226 265.498810,460.442902 
	C264.214600,465.965790 263.673279,471.098480 264.028412,476.334137 
	C256.535980,475.328094 256.942535,475.375824 257.818359,467.916412 
	C258.621613,461.074707 258.888824,454.161865 259.998535,446.880127 
z"/>
<path fill="#EE0D56" opacity="1.000000" stroke="none" 
	d="
M315.000000,461.000000 
	C315.000366,445.524109 314.996185,430.548187 315.007172,415.572296 
	C315.008453,413.808380 314.512695,411.827301 317.553802,411.942780 
	C319.814606,412.028625 321.627502,412.088379 320.995331,415.236633 
	C327.579498,409.161896 333.442444,410.847565 335.557373,420.423401 
	C339.127319,436.587006 339.936798,453.005127 334.873596,469.118591 
	C332.613647,476.310699 327.414612,477.908478 320.999359,473.250641 
	C320.999359,482.567810 321.021698,491.414185 320.979614,500.260284 
	C320.971649,501.929688 321.670288,503.960449 318.590332,504.068420 
	C315.747101,504.168121 314.914703,503.260895 314.943298,500.436707 
	C315.074554,487.458923 315.000427,474.479095 315.000000,461.000000 
z"/>
<path fill="#EE0D56" opacity="1.000000" stroke="none" 
	d="
M293.000000,478.331299 
	C292.999878,485.780273 293.023224,492.773163 292.984772,499.765686 
	C292.973724,501.772583 293.763123,504.073639 290.082184,504.103394 
	C286.554382,504.131897 286.786133,502.080048 287.027313,499.932159 
	C288.793152,484.206482 287.784729,468.427887 287.970886,452.674438 
	C288.116425,440.355591 288.057953,428.033203 287.954132,415.713531 
	C287.932312,413.123535 288.564819,410.938660 291.332458,412.154449 
	C294.031616,413.340179 296.166351,412.276276 298.584290,412.045868 
	C303.600281,411.567932 307.268494,414.862213 308.674774,422.548645 
	C311.226654,436.496490 312.018036,450.600830 308.856964,464.579193 
	C308.098541,467.932892 306.804749,471.396271 304.080139,473.973083 
	C300.120483,477.717834 296.726776,475.648956 293.000000,472.548309 
	C293.000000,474.662628 293.000000,476.268829 293.000000,478.331299 
z"/>
<path fill="#EE0D56" opacity="1.000000" stroke="none" 
	d="
M357.895325,413.575531 
	C363.553436,411.563080 364.997162,412.483032 364.998474,418.353973 
	C365.002411,436.015991 365.022278,453.678131 364.954803,471.339874 
	C364.949554,472.716614 365.940430,474.717010 363.068695,475.054779 
	C360.341461,475.375549 359.785828,473.949982 359.880829,471.148621 
	C357.473633,474.560272 355.131165,476.994446 351.337189,475.916931 
	C347.542694,474.839355 345.805725,471.265228 345.239929,468.104919 
	C342.179291,451.010345 340.695282,433.863068 346.948303,417.044891 
	C348.952026,411.655701 352.193451,410.547119 357.895325,413.575531 
z"/>
<path fill="#EE0D56" opacity="1.000000" stroke="none" 
	d="
M404.365112,427.831970 
	C403.675873,425.111481 401.323364,423.922302 399.822968,424.321869 
	C397.330597,424.985535 396.505280,428.021332 396.149078,430.272491 
	C394.703125,439.410767 394.302002,448.638336 396.127991,457.778687 
	C396.582855,460.055695 397.021271,462.869354 399.738556,463.842194 
	C402.320923,464.766693 403.103973,462.152588 404.737610,461.128845 
	C408.379150,458.846771 410.059631,464.320526 410.057434,464.986053 
	C410.044098,469.037659 408.006927,472.363495 404.624603,475.008331 
	C401.571564,477.395721 399.013916,476.803314 396.339935,474.809174 
	C392.487427,471.936188 391.478363,467.618561 390.638214,463.234192 
	C387.876221,448.821198 387.979614,434.466858 392.082550,420.326416 
	C394.063690,413.498627 397.284790,411.102631 402.350952,412.054565 
	C408.542419,413.217896 409.107330,418.977417 410.910431,423.452057 
	C413.978485,431.065826 411.154572,437.803650 406.981262,444.179474 
	C405.199738,446.901276 403.461395,449.651337 401.699249,452.385925 
	C396.638733,444.877289 396.709167,444.557800 401.832581,436.591705 
	C403.454041,434.070557 405.945465,431.684143 404.365112,427.831970 
z"/>
<path fill="#EE0D56" opacity="1.000000" stroke="none" 
	d="
M418.000000,441.000000 
	C418.000031,417.014801 417.970703,393.529480 418.050720,370.044556 
	C418.057831,367.963531 416.572144,364.843048 421.113098,364.913513 
	C425.299316,364.978546 423.949707,367.816132 423.953430,369.768097 
	C424.017944,403.413452 424.015900,437.058990 423.951233,470.704346 
	C423.948059,472.357758 425.169983,474.879120 421.641296,475.052795 
	C418.847717,475.190338 417.893250,474.377625 417.939636,471.480133 
	C418.099640,461.488983 418.000458,451.493713 418.000000,441.000000 
z"/>
<path fill="#EE0D56" opacity="1.000000" stroke="none" 
	d="
M435.337585,464.217072 
	C439.247742,458.159485 438.301666,452.587128 435.422150,446.759949 
	C429.742767,435.266785 431.102234,424.004852 437.395142,413.142761 
	C437.855316,412.348511 438.789001,411.828583 439.512695,411.171875 
	C442.980042,415.341522 445.203430,419.046753 441.087280,424.429382 
	C437.487061,429.137268 437.955322,434.966888 440.713318,440.267395 
	C447.107483,452.556183 445.807190,464.341980 438.637299,475.805939 
	C438.378906,476.219086 437.988556,476.562592 437.615021,476.887207 
	C437.253540,477.201416 436.834412,477.449341 436.466125,477.708405 
	C434.236267,473.474762 430.089172,469.455536 435.337585,464.217072 
z"/>
<path fill="#EE0D56" opacity="1.000000" stroke="none" 
	d="
M372.000000,460.987335 
	C372.000000,450.338837 372.095917,440.187073 371.954468,430.038605 
	C371.895050,425.773590 371.246704,421.519775 371.039276,417.252441 
	C370.943481,415.281616 370.182861,412.934967 373.888763,412.895203 
	C377.370667,412.857819 377.084229,414.800201 377.005737,417.017151 
	C376.970612,418.009125 376.999817,419.003418 376.999817,420.711060 
	C378.551453,417.907837 379.692902,415.672913 381.004944,413.543091 
	C381.738983,412.351440 382.941101,411.697876 384.420044,412.050446 
	C386.891144,412.639465 384.787994,414.174591 384.903168,415.186584 
	C385.321503,418.862457 384.093750,421.704407 381.244812,424.579590 
	C377.442108,428.417236 377.217194,434.118652 377.080566,439.297882 
	C376.808624,449.607544 377.022186,459.929535 376.976288,470.246185 
	C376.968964,471.891754 377.726105,473.982056 374.614014,474.055817 
	C371.631561,474.126526 372.000427,472.291138 372.000946,470.471008 
	C372.001831,467.475800 372.000427,464.480591 372.000000,460.987335 
z"/>
<path fill="#EE0D56" opacity="1.000000" stroke="none" 
	d="
M458.119202,35.630013 
	C457.684937,36.332851 457.210388,37.002220 457.114716,36.951859 
	C455.504517,36.104233 457.473480,35.290295 457.178741,34.417553 
	C457.721588,34.243259 457.991028,32.710430 458.791534,34.047176 
	C458.922791,34.266338 458.449249,34.847668 458.119202,35.630013 
z"/>
<path fill="#000000" opacity="1.000000" stroke="none" 
	d="
M179.999924,365.026520 
	C182.499329,348.607788 187.029037,333.197449 192.987961,318.206909 
	C196.343628,309.765228 199.163162,301.051788 204.649567,293.064911 
	C213.816437,312.374634 221.555847,331.725677 226.186905,352.343719 
	C228.231644,361.447113 228.881012,370.711578 230.893738,379.773865 
	C231.391464,382.014832 230.689392,383.058258 228.115585,383.042999 
	C212.475830,382.950165 196.834747,382.934326 181.195389,383.055542 
	C178.415237,383.077057 177.662201,381.980560 178.003815,379.544006 
	C178.661423,374.853607 179.333511,370.165283 179.999924,365.026520 
z"/>
<path fill="#000000" opacity="1.000000" stroke="none" 
	d="
M275.000122,444.932098 
	C275.333160,448.330139 275.594116,451.271393 276.018890,454.188843 
	C276.473907,457.313934 275.207123,458.377563 272.147156,458.044495 
	C270.023529,457.813354 267.854401,458.000031 265.419128,458.000031 
	C267.075043,441.430389 268.699097,425.179901 270.323120,408.929413 
	C270.642883,408.882721 270.962677,408.836029 271.282440,408.789337 
	C272.521667,420.681183 273.760864,432.572998 275.000122,444.932098 
z"/>
<path fill="#000000" opacity="1.000000" stroke="none" 
	d="
M321.003723,455.470520 
	C321.000885,447.892029 320.624054,440.732056 321.156982,433.640442 
	C321.429504,430.014038 320.660614,424.475616 326.391388,424.159332 
	C332.359467,423.829987 331.538513,429.804993 331.730713,432.920227 
	C332.255554,441.425842 332.861572,450.084015 330.879486,458.524628 
	C330.407410,460.535034 330.113647,463.368042 327.458405,463.900604 
	C324.285339,464.536987 323.401886,461.694946 322.275879,459.571564 
	C321.678833,458.445679 321.418640,457.141205 321.003723,455.470520 
z"/>
<path fill="#000000" opacity="1.000000" stroke="none" 
	d="
M293.988068,455.930542 
	C292.136536,448.825806 292.662354,442.013916 293.521362,435.362427 
	C293.882812,432.563324 293.044495,429.380707 295.043488,426.782806 
	C296.174835,425.312500 297.147675,423.736481 299.343597,424.021240 
	C301.390961,424.286743 302.615967,425.530579 302.976410,427.497559 
	C304.298798,434.713867 305.965912,441.885437 304.376740,449.331512 
	C303.798523,452.040741 304.463257,455.093750 303.557465,457.631775 
	C302.697083,460.042542 302.994354,464.543182 298.769836,463.819305 
	C295.240723,463.214600 293.939270,459.929779 293.988068,455.930542 
z"/>
<path fill="#000000" opacity="1.000000" stroke="none" 
	d="
M351.625031,463.080750 
	C347.242126,451.410553 348.679993,439.812836 350.411591,428.271576 
	C350.689941,426.416351 352.041687,423.933197 354.655243,424.128235 
	C356.863861,424.293091 357.694946,426.137329 358.158203,428.289398 
	C360.257050,438.038727 360.443024,447.928223 359.826233,457.771881 
	C359.482239,463.261444 356.087891,465.133514 351.625031,463.080750 
z"/>
</svg>